<svg version="1.2" xmlns="http://www.w3.org/2000/svg" viewBox="0 0 224 104" width="224" height="104">
	<title>egba-dark-svg</title>
	<style>
		.s0 { fill: #ffffff } 
		.s1 { fill: #fff7f7 } 
	</style>
	<path id="Layer" class="s0" d="m0 38.5h1.8c1.8 0 4.4-1 4.4-3.2v-29.3c0-2.2-2.6-3.2-4.4-3.2h-0.7v-2c4.8 0.2 9.1 0.3 14 0.3 4.9 0 8.5-0.1 13.4-0.3v9.3h-1.7c-0.2-4.7-1.6-6.7-6.8-6.7h-6.9c-1.2 0-1.8 0.4-1.8 1.8v13.2h6.2c4.8 0 6.2 0.7 6.2-4.2h2c-0.2 2.3-0.1 3.4-0.1 5.5 0 2.1-0.1 3.9 0.1 6.2h-2c0-5-1.4-4.8-6.2-4.8h-6.2v15c0 1.3 0.6 1.8 1.8 1.8h8.6c4.4 0 6.8-1.3 8.2-7.2h2.3c-0.8 3.6-1.7 6.2-2.2 9.9-5.2-0.2-9.5-0.1-15.2-0.1-5.3 0-10.1 0-14.8 0.1z"/>
	<path id="Layer" class="s0" d="m71.6 38.4c-3.6 0.8-7.1 3.2-16 3.2-12.2 0-19.9-9-19.9-20.5 0.1-10.5 6.7-21.1 21.4-21.1 4.6 0.1 9.1 0.7 13.6 1.6 0 1.5 0 3 0.1 5.3 0.1 2.3 0.1 2.7 0.3 4.7h-1.8c-0.1-7.1-6.1-9.3-12.6-9.3-5.3 0-14.7 4.3-14.7 18 0 10 6.7 18.3 16.2 18.3 7.7 0 7.7-2.4 7.7-4.1v-8.3c0-2.2-1.1-2.3-4.2-2.3h-1.9v-2.2c2.5 0 13.8 0 15.6 0v2.3h-0.8c-1.8 0-3.1 0.2-3.1 2.4v12z"/>
	<path id="Layer" fill-rule="evenodd" class="s0" d="m78.4 38.5h1.8c1.6 0.2 3.1-1 3.3-2.7 0-0.2 0-0.3 0-0.5v-29.3c0.1-1.7-1.1-3.1-2.8-3.2-0.2 0-0.3 0-0.5 0h-1.3v-2h16.6c7.1 0 11.8 1.9 11.8 8.9 0 5.1-2.9 8-7.8 9.5v0.1c6.1 0.5 9.8 3.9 9.8 10.2 0 6.3-4.3 10.5-13 10.7-3.8 0.1-4.3 0-7.5 0-3.5 0-7 0-10.4 0zm15-35.4c-3.4 0-3.8 0.4-3.8 2.9v12.2c1.2 0.1 2.3 0.2 3.5 0.2 5.1 0 8.3-1.4 8.3-7.5 0-5.2-2.9-7.8-8-7.8zm-1.4 17.6c-0.8 0-1.6 0-2.3 0.2v15c0 2.3 0.1 2.3 4.8 2.3 5.1 0 9.2-2.6 9.2-8.6 0-7.3-6.2-8.9-11.7-8.9z"/>
	<path id="Layer" fill-rule="evenodd" class="s1" d="m136.6 25.5h-12.5l-3.7 8.7c-0.4 0.9-0.7 1.8-0.8 2.8 0 1.4 1.3 1.4 3.2 1.4h1.8v2c-2 0-4.4 0-6.8 0h-6.2v-2h0.9c2.3 0 3.5-1.2 5-4.9l13.4-33.5h1.9l12.8 34.3c1.5 3.7 3.3 4 6.7 4.1v2h-15.7v-2h1.7c1.7 0 2.5 0 2.5-1.3-0.2-1.2-0.5-2.4-1-3.6zm-6.1-17.8l-6 15.5h11.7z"/>
	<g id="Layer">
		<path id="Layer" fill-rule="evenodd" class="s0" d="m214.6 98h-1.8v-7.8c0-2.3-1.2-3.4-3.1-3.4-1.9 0-3.1 1.2-3.1 3.4v7.8h-1.9v-12.6h1.9v1.4c0.8-1 2.1-1.5 3.5-1.5 1.2 0 2.3 0.4 3.2 1.2 0.9 0.9 1.4 2.2 1.3 3.5zm-15.4-1.2c-2.1 1.9-5.3 1.9-7.3 0-1.2-1.3-1.5-3.1-1.5-5 0-1.9 0.2-3.7 1.5-5 2.1-1.9 5.3-1.9 7.3 0 1.3 1.3 1.5 3 1.5 5 0 1.9-0.3 3.6-1.5 5zm-1.4-8.9c-0.6-0.6-1.4-0.9-2.3-0.9-0.9 0-1.7 0.3-2.3 0.9-0.9 0.9-1 2.5-1 3.9 0 1.4 0.1 3 1 3.9 0.6 0.6 1.4 0.9 2.3 0.9 0.9 0 1.7-0.3 2.3-0.9 0.9-0.9 1-2.5 1-3.9 0-1.5 0-3-1-3.9zm-11.4 10.1h-1.9v-12.6h1.9zm0.2-16.1h-2.1v-2.1h2zm-7.1 16.3c-0.1 0-0.3 0-0.4 0-1.7-0.2-3-1.7-2.8-3.4v-7.8h-1.6v-1.4h1.6v-4h1.8v4h2.7v1.4h-2.7v7.7c0 1.1 0.5 1.8 1.7 1.8h1v1.6zm-9.9 0.1v-1.2c-1 1-2.3 1.5-3.6 1.4-1.3 0.1-2.6-0.3-3.6-1.2-0.7-0.7-1-1.6-1-2.6 0-2.3 1.6-3.7 4.4-3.7h3.8v-1.2c0-1.9-0.9-2.8-3.2-2.8-1.3-0.2-2.6 0.3-3.3 1.4l-1.3-1.2c1.2-1.5 2.5-1.9 4.5-1.9q5.1 0 5.1 4.2v8.6zm0-6.1h-3.5c-1.9 0-2.8 0.7-2.8 2.2 0 1.5 0.9 2.2 2.9 2.2 1 0.2 2-0.1 2.8-0.8 0.5-0.6 0.7-1.4 0.6-2.2zm-11.8 5.8h-1.9v-12.6h1.9zm0.1-16.1h-2.1v-2.1h2.1zm-9.7 16.4c-3.2 0-5.6-2.2-5.6-6.5 0-4.3 2.4-6.5 5.6-6.5 1.6-0.1 3.2 0.6 4.2 1.9l-1.3 1.2c-0.7-0.9-1.8-1.4-2.9-1.4-1.1-0.1-2.2 0.5-2.9 1.4-0.6 1-0.9 2.2-0.8 3.4-0.1 1.2 0.2 2.4 0.8 3.4 0.6 0.9 1.7 1.4 2.9 1.4 1.1 0.1 2.2-0.5 2.9-1.4l1.3 1.2c-1 1.2-2.5 1.9-4.2 1.9zm-10.3-1.5c-2.1 1.9-5.3 1.9-7.3 0-1.2-1.3-1.5-3.1-1.5-5 0-1.9 0.2-3.7 1.5-5 2.1-1.9 5.3-1.9 7.3 0 1.3 1.3 1.5 3 1.5 5 0 1.9-0.3 3.6-1.5 5zm-1.4-8.9c-0.6-0.6-1.4-0.9-2.3-0.9-0.9 0-1.7 0.3-2.3 0.9-0.9 0.9-1 2.5-1 3.9 0 1.4 0.1 3 1 3.9 0.6 0.6 1.4 0.9 2.3 0.9 0.8 0 1.7-0.3 2.3-0.9 0.9-0.9 1-2.5 1-3.9 0-1.5 0-3-1-3.9zm-15.4 10.2c-1.9 0.2-3.8-0.5-5.2-1.8l1.2-1.2c1 1.1 2.4 1.6 3.9 1.5 2.1 0 3.4-0.7 3.4-2.2 0-1.1-0.6-1.7-2.1-1.8l-2.1-0.2c-2.5-0.2-3.8-1.3-3.8-3.4 0-2.3 2-3.7 4.7-3.7 1.6 0 3.2 0.4 4.5 1.4l-1.2 1.2c-1-0.7-2.2-1.1-3.4-1-1.8 0-2.8 0.8-2.8 2.1 0 1 0.6 1.7 2.2 1.8l2 0.2c2.2 0.2 3.7 1 3.7 3.4 0 2.4-2 3.8-5 3.7zm-12.4 0c-1.9 0.1-3.8-0.5-5.2-1.8l1.3-1.2c1 1.1 2.4 1.6 3.9 1.5 2.1 0 3.4-0.7 3.4-2.2 0-1.1-0.6-1.7-2.1-1.8l-2.1-0.2c-2.5-0.2-3.8-1.3-3.8-3.4 0-2.3 1.9-3.7 4.6-3.7 1.7 0 3.3 0.4 4.6 1.4l-1.2 1.2c-1-0.7-2.2-1-3.4-1-1.8 0-2.8 0.8-2.8 2.1 0 1 0.6 1.7 2.2 1.8l2 0.2c2.2 0.2 3.7 1 3.7 3.4 0 2.4-2.1 3.8-5.1 3.7zm-8.7-0.1l-1.5-4.1h-8l-1.5 4.2h-2.1l6.7-18.3h1.7l6.7 18.3zm-5.6-15.5l-3.4 9.7h6.9zm-16.5 17c-0.2 2.7-2.5 4.9-5.3 4.7-1.6 0.1-3.2-0.5-4.3-1.7l1.2-1.2c0.8 0.8 1.9 1.2 3 1.2 2.5 0 3.5-1.8 3.5-3.9v-2c-0.8 1.1-2.1 1.7-3.5 1.6-1.1 0-2.2-0.4-3-1.2-1.2-1.3-1.5-3.2-1.5-5.3 0-2.1 0.2-4 1.5-5.3 0.9-0.7 2-1.1 3.1-1.1 1.3-0.1 2.7 0.5 3.5 1.6v-1.5h1.8c0 0.2 0 13.6 0 14.1zm-5-12.6c-2.8 0-3.2 2.4-3.2 4.8 0 2.3 0.5 4.7 3.2 4.7 2.7 0 3.1-2.3 3.1-4.7 0-2.4-0.3-4.8-3.1-4.8zm-10.8 11.1v-7.8c0-2.3-1.2-3.4-3.1-3.4-1.9 0-3.1 1.2-3.1 3.4v7.8h-1.8v-12.6h1.8v1.4c0.9-1 2.2-1.5 3.6-1.5 1.2 0 2.3 0.4 3.2 1.2 0.9 0.9 1.4 2.2 1.3 3.5v8.1zm-12.7 0h-1.9v-12.6h1.9zm0.2-16.1h-2.1v-2.1h2.1zm-7.1 16.3c-0.1 0-0.3 0-0.4 0-1.7-0.2-3-1.7-2.8-3.4v-7.8h-1.6v-1.4h1.6v-4h1.9v4h2.7v1.4h-2.7v7.7c0 1.1 0.5 1.8 1.7 1.8h1v1.6zm-8.5 0c-0.1 0-0.3 0-0.4 0-1.7-0.2-3-1.7-2.8-3.4v-7.8h-1.6v-1.4h1.6v-4h1.9v4h2.7v1.4h-2.7v7.7c0 1.1 0.5 1.8 1.7 1.8h1v1.6zm-16-6c0 2.8 1.3 4.4 3.7 4.4 1.2 0.1 2.5-0.4 3.3-1.4l1.3 1.1c-1.1 1.3-2.8 2.1-4.6 2-3.3 0-5.5-2-5.5-6.5 0-4.1 1.9-6.5 5.2-6.5 3.3 0 5.2 2.3 5.2 6.1v0.9zm6.3-3.4c-0.3-0.7-0.9-1.3-1.6-1.6-1.6-0.8-3.6 0-4.3 1.6-0.3 0.7-0.4 1.4-0.4 2.1h6.7c0-0.7-0.1-1.4-0.4-2.1zm-17.2 9.3h-7.1v-18.3h6.9c3.2 0 5.4 1.8 5.4 4.9 0 1.8-1 3.4-2.7 4 1.8 0.6 3.1 2.3 3 4.3 0 3.3-2.2 5.1-5.5 5.1zm-0.3-16.6h-4.8v6.4h4.8c2 0 3.6-1 3.6-3.2 0-2.2-1.6-3.2-3.6-3.2zm0.2 8.1h-5v6.8h4.9c2.3 0 3.7-1.4 3.7-3.4 0-2.1-1.4-3.4-3.6-3.4z"/>
		<path id="Layer" fill-rule="evenodd" class="s0" d="m220.9 72.4l-1.6-2c-1.4 1.4-3.4 2.2-5.4 2.2-3.6 0-5.8-2.1-5.8-5.3 0-2.8 2-4.2 4-5.5-0.9-1.1-2-2.4-2-4 0-2.2 1.8-4 4-4 2.2 0 4 1.8 4 4-0.1 1.4-0.8 2.6-2 3.3 0 0-1 0.6-1.4 0.9l4.7 5.6c0.8-1.3 1.1-2.7 1-4.2h1.8c0.1 2-0.5 4-1.7 5.6l2.8 3.4zm-4.7-14.6c-0.1-1.3-1-2.2-2.1-2.1 0 0-0.1 0-0.2 0-1.1 0-2 1-1.9 2.1 0 0.8 0.4 1.5 1.6 3l1-0.7c0.8-0.6 1.6-1.3 1.6-2.3zm-3.1 5.1c-1.5 1.1-3.1 2.1-3.1 4.2 0 0.2 0 0.3 0 0.4 0.1 2 1.8 3.5 3.8 3.3 1.6 0 3.2-0.7 4.3-1.8zm-20 15.2c-1.6 0.1-3.2-0.5-4.3-1.7l1.2-1.2c0.8 0.9 1.9 1.3 3 1.3 2.5 0 3.5-1.7 3.5-3.9v-2c-0.8 1.2-2.1 1.8-3.5 1.7-1.2 0.1-2.3-0.3-3.1-1.1-1.2-1.3-1.5-3.2-1.5-5.3 0-2.1 0.2-4 1.5-5.3 0.9-0.7 2-1.1 3.1-1.1 1.3-0.1 2.7 0.6 3.5 1.7v-1.5h1.8v13.1c0 3.1-1.9 5.4-5.2 5.3zm0.2-16.9c-2.8 0-3.2 2.3-3.2 4.7 0 2.4 0.5 4.8 3.2 4.8 2.7 0 3.1-2.4 3.1-4.8 0-2.3-0.3-4.7-3.1-4.7zm-10.6 11.2v-7.8c0-2.3-1.2-3.4-3.1-3.4-1.9 0-3.1 1.2-3.1 3.4v7.8h-1.9v-12.7h1.9v1.4c0.9-1 2.2-1.5 3.5-1.5 1.2 0 2.3 0.4 3.2 1.2 0.9 0.9 1.4 2.2 1.3 3.5v8.1zm-12.8-0.1h-1.9v-12.6h1.9zm0.1-16.1h-2.1v-2.1h2.1zm-8.5 16.2v-7.8c0-2.3-1.2-3.4-3.1-3.4q-0.1 0-0.3 0c-1.6 0.1-2.9 1.5-2.8 3.2v8h-1.9v-7.8c0-2.3-1.2-3.4-3.1-3.4-1.9 0-3.2 1.2-3.2 3.4v7.8h-1.8v-12.7h1.8v1.4c0.9-1 2.2-1.5 3.6-1.5 1.6-0.1 3.1 0.7 3.9 2.1 1-1.4 2.5-2.2 4.2-2.1 1.2 0 2.4 0.4 3.3 1.2 1 0.9 1.5 2.2 1.4 3.5v8.1zm-22.5 0.2v-1.2c-0.9 1-2.2 1.5-3.6 1.4-1.3 0.1-2.6-0.3-3.6-1.2-0.7-0.7-1-1.7-1-2.6 0-2.3 1.6-3.7 4.4-3.7h3.8v-1.2c0-1.9-0.9-2.8-3.2-2.8-1.3-0.2-2.5 0.4-3.2 1.4l-1.3-1.2c1.2-1.5 2.4-1.9 4.5-1.9q5.1 0 5.1 4.2v8.6zm0.1-6h-3.5c-1.9 0-2.8 0.7-2.8 2.2 0 1.5 0.9 2.2 2.9 2.2 1 0.1 2-0.2 2.8-0.9 0.5-0.6 0.7-1.4 0.6-2.2zm-13 3.8l-0.1 0.1c-2.6 2.6-6.8 2.7-9.5 0.1-1.7-1.7-1.7-3.5-1.7-7.4 0-3.9 0-5.7 1.7-7.4 1.3-1.2 2.9-1.9 4.7-1.9 3.2-0.1 6 2.3 6.4 5.5h-2q-0.1-1.3-1.2-2.4c-1.8-1.7-4.6-1.8-6.4 0-1.2 1.1-1.3 2.3-1.3 6.2 0 3.9 0.1 5.1 1.3 6.3 0.9 0.8 2 1.3 3.2 1.3 1.4 0 2.6-0.6 3.5-1.6 0.7-0.9 1.1-2.1 1-3.3v-1.4h-4.5v-1.7h6.5v2.9c0.1 1.7-0.5 3.4-1.6 4.7zm-23.6 2v-7.8c0-2.3-1.2-3.4-3.1-3.4-1.9 0-3.1 1.2-3.1 3.4v7.8h-1.9v-12.7h1.9v1.4c0.8-1 2.1-1.5 3.5-1.5 1.2 0 2.3 0.4 3.2 1.2 0.9 0.9 1.4 2.2 1.3 3.5v8.1zm-14.6 0.2v-1.2c-0.9 1-2.2 1.5-3.6 1.4-1.3 0.1-2.6-0.3-3.6-1.2-0.7-0.7-1-1.7-1-2.6 0-2.3 1.6-3.7 4.4-3.7h3.8v-1.2c0-1.9-0.9-2.8-3.2-2.8-1.3-0.2-2.5 0.4-3.2 1.4l-1.3-1.2c1.2-1.5 2.5-1.9 4.5-1.9q5.1 0 5.1 4.2v8.6zm0.1-6h-3.5c-1.9 0-2.8 0.7-2.8 2.2 0 1.5 0.9 2.2 2.9 2.2 1 0.1 2-0.2 2.8-0.9 0.5-0.6 0.7-1.4 0.6-2.2zm-19.8-0.1c0 2.8 1.3 4.4 3.7 4.4 1.3 0 2.5-0.5 3.3-1.5l1.3 1.1c-1.1 1.3-2.8 2.1-4.6 2-3.3 0-5.5-2-5.5-6.5 0-4 2-6.4 5.3-6.4 3.3 0 5.2 2.3 5.2 6.1v0.8zm6.4-3.4c-0.3-0.7-0.9-1.3-1.6-1.6-1.6-0.7-3.6 0-4.3 1.6-0.3 0.7-0.4 1.4-0.4 2.1h6.7c0-0.8-0.1-1.5-0.4-2.1zm-12.9 8.3c-0.9 0.8-2 1.1-3.1 1.1-1.4 0.1-2.8-0.5-3.6-1.6v7.1h-1.9v-18.2h1.9v1.5c0.8-1.2 2.2-1.8 3.6-1.7 1.1 0 2.2 0.4 3.1 1.1 1.2 1.3 1.5 3.4 1.5 5.4 0 1.9-0.3 4-1.5 5.3zm-3.5-10.1c-2.8 0-3.2 2.3-3.2 4.8 0 2.4 0.3 4.8 3.1 4.8 2.8 0 3.2-2.3 3.2-4.8 0-2.5-0.3-4.8-3.1-4.8zm-10.5 9.8c-2.1 1.9-5.3 1.9-7.3 0-1.3-1.3-1.5-3.1-1.5-5 0-1.9 0.2-3.7 1.5-5 2.1-1.9 5.3-1.9 7.3 0 1.2 1.3 1.5 3 1.5 5 0 1.9-0.3 3.6-1.5 5zm-1.4-8.9c-0.6-0.6-1.4-0.9-2.3-0.9-0.9 0-1.7 0.3-2.3 0.9-0.9 0.9-1 2.5-1 3.9 0 1.4 0.1 3 1 3.9 0.6 0.6 1.4 0.9 2.3 0.9 0.8 0 1.7-0.3 2.3-0.9 0.9-0.9 1-2.5 1-3.9 0-1.5 0-3-1-3.9zm-9.7-0.1c-0.6-0.6-1.4-1-2.2-0.9-0.1 0-0.1 0-0.2 0-1.7 0.2-3 1.7-2.8 3.4v7.8h-1.8v-12.6h1.8v1.5c0.9-1.1 2.2-1.8 3.6-1.7 1.1 0 2.2 0.4 3 1.2zm-11.7 10.2h-1.7v-1.4c-0.9 1.1-2.2 1.6-3.6 1.6-1.2 0-2.4-0.4-3.3-1.2-0.9-0.9-1.4-2.2-1.3-3.5v-8.1h1.7v7.8c0 2.3 1.2 3.4 3.1 3.4 1.9 0 3.2-1.2 3.2-3.4v-7.8h1.9zm-13.5 0h-11.4v-18.3h11.5v1.7h-9.5v6.5h8v1.8h-8v6.6h9.4z"/>
	</g>
</svg>