<svg version="1.2" xmlns="http://www.w3.org/2000/svg" viewBox="0 0 57 50" width="57" height="50">
	<title>sicad-dark-svg</title>
	<style>
		.s0 { fill: #ffffff } 
	</style>
	<path id="Layer" fill-rule="evenodd" class="s0" d="m43.1 36.8c2.9-0.4 5.8-0.3 8.6 0.3 2.9 0.5 5 3.1 4.8 6.1 0.2 3-2 5.7-5 6.1-2 0.2-4 0.4-6 0.3-0.8 0-0.8-0.5-0.8-1.1 0-0.5 0-8.7 0-9.2-0.1-1.6-0.2-1.7-1.6-2.5zm10.9 6.3c0-3.6-2.8-6.1-6.2-5.5-0.6 0.1-1.1 0.2-1.1 1q0 4.5 0 9c0 0.7 0.3 0.9 0.9 1 3.7 0.5 6.4-1.8 6.4-5.5zm-53.7 2.3c0.2 0.5 0.4 1 0.6 1.4 0.9 1.8 3.1 2.6 5 1.8 0.3-0.1 0.6-0.3 0.8-0.5 0.6-0.7 0.5-1.9-0.2-2.5-0.5-0.5-1.1-0.9-1.7-1.2-0.9-0.6-1.9-1-2.8-1.6-1.9-1.2-2.5-2.5-2-4.1 0.6-1.7 2.3-2.7 4.1-2.5 0.4 0.1 0.8 0.1 1.2 0.2 3.4 0.7 3.6 1.9 3.1 4.3-0.7-0.1-0.5-0.8-0.7-1.2-0.7-1.7-2.4-2.7-4.2-2.3-0.8 0.1-1.5 0.7-1.7 1.5-0.2 0.7 0.1 1.5 0.8 1.9 0.9 0.6 1.9 1.1 2.8 1.7 0.9 0.4 1.7 0.9 2.5 1.5 0.3 0.2 0.5 0.5 0.7 0.8 1 1.5 0.6 3.4-0.9 4.4-2.2 1.3-4.9 1.1-7-0.3-1-0.9-0.7-2-0.6-3.1zm42.9 4c-2.2 0.4-3.5-0.1-4.3-2l-0.9-1.6h-5.4c0 0-1.3 2.7-1.6 3.3-0.1 0.2-0.5 0.2-0.7 0.3 0-0.2-0.2-0.5-0.1-0.8q0.6-1.4 1.2-2.7 1.8-3.9 3.6-7.8 0.3-0.6 0.6-1.2c0.3-0.5 0.7-0.4 1 0 0.2 0.4 0.3 0.7 0.5 1.1 1.2 2.7 2.4 5.5 3.6 8.2 0.8 2 0.8 2 2.5 3.2zm-7.8-9.7q-1.3 2.5-2.4 5.1h4.6zm-7.2 0.9c-0.2-0.3-0.4-0.6-0.5-1-0.5-1.5-1.9-2.5-3.4-2.5-1.9-0.1-3.5 0.4-4.4 2.1-1.2 2.3-1.3 5-0.1 7.3 0.2 0.4 0.4 0.7 0.7 1 1.8 1.9 4.8 2 6.7 0.2 0.4-0.4 0.8-0.9 1.2-1.4l0.4 0.2c0 0.3-0.1 0.5-0.2 0.8-2.2 3.5-8.2 3.5-10.6 0-2.2-3.3-1.4-7.8 1.8-10.1 2.3-1.4 5.2-1.4 7.5 0 1.1 0.7 1.2 1.3 0.9 3.4zm-12.6 8.8c-0.2 0.1-0.5 0.1-0.7 0.2-3.1 0.1-3.2-0.4-3.2-3 0.1-2.9 0-10 0-10h2.1v10.2c0 1.7 0 1.7 1.8 2.6zm30.9-47.7c0.4 1.6-0.5 3.2-2.1 3.7-1.5 0.7-3.3 0.1-4-1.4-0.4-1.6 0.5-3.2 2.1-3.7 1.5-0.8 3.3-0.1 4 1.4zm9 3.5c0 1.7-1.8 2.1-4.4 2.1-4.3 0-8.9 3.2-12.1 9.9-2.3 4.9-4.8 11.5-8 11.5-2.3 0-2.3-2.6 0.5-2.6 2.1 0 5.1-9.3 7.3-12.8 2.2-3.5 6-9.7 13.1-9.7 2.8-0.1 3.5 0.3 3.6 1.6zm-5.3 8.9c0.2 1.1-0.3 2.2-1.2 2.7-1.3 0.6-2.8 0.2-3.5-1-0.4-1.2 0.4-2.5 1.6-2.8 1.1-0.5 2.5 0 3.1 1.1zm5.1 4.6c0 3.6-9 6.3-9 8.5 0 0 0.4 1.4 2.8 1.4 2.4 0-11.9 2-1.4-4.9 9.9-6.5 0.3-5-3.7-3.5-4 1.5 2.5-3.2 8-3.2 2.2 0 3.4 0.3 3.3 1.7z"/>
</svg>