<svg version="1.2" xmlns="http://www.w3.org/2000/svg" viewBox="0 0 92 50" width="92" height="50">
	<title>srij-dark-svg</title>
	<style>
		.s0 { fill: #ffffff } 
	</style>
	<path id="Layer" fill-rule="evenodd" class="s0" d="m28.8 13.9c6.4 0 12.2-0.2 18.1 0.1 2.2 0.2 4.3 0.8 6.3 1.9 1.5 0.9 2.7 2.2 3.5 3.8 1.3 3 1.6 6.3 0.8 9.4-1.1 3.9-1.5 4.4-6.5 7.9 2.3 4.5 5.9 8.3 8.4 12.9h-8.6l-8.2-11.7h-6.4c-0.7 3.8 0 7.6-0.4 11.5h-6.9c-0.4-11.9 0-23.8-0.1-35.8zm7.3 6.3c-0.2 3.9-0.6 7.6 0.2 11.1 0.4 0.2 0.8 0.3 1.2 0.4 2 0 4 0.1 6 0 4.9-0.1 6.8-2.2 6.5-7.1-0.2-2.8-1.5-4.3-4.3-4.4-2.9-0.2-5.9-0.1-9.6 0z"/>
	<path id="Layer" class="s0" d="m0 43.6l4-5.1c1.9 1.2 3.7 2.2 5.5 3.3 2.3 1.4 4.8 1.5 7.4 1.2 1.7-0.1 3.1-1.4 3.5-3.1 0.3-1.7-0.6-3.4-2.2-4-1.7-0.8-3.5-1.4-5.3-1.8-3-0.8-6-1.7-8.4-3.7-1-0.7-1.7-1.7-2.2-2.8-2.5-7.4 0.5-13.7 9-15 5.5-0.8 11.7 0.8 15.7 4.4l-3.3 5c-2.3-0.9-4.4-2-6.6-2.6-1.5-0.4-3-0.5-4.6-0.4-1.8 0-3.3 1.5-3.5 3.4-0.2 1.9 0.4 3 2.5 3.8 2.8 1 5.7 1.9 8.5 2.8 2.1 0.6 4.1 1.8 5.6 3.4 2.9 3.2 3.1 9.1 0.5 12.6-2.6 3.4-6.8 5.3-11.1 5-5.6 0-11.1-2.3-15-6.4z"/>
	<path id="Layer" class="s0" d="m74 19.3v-5.4h17.5c0 8.9 0.4 17.6-0.2 26.3-0.4 6-5.5 10.7-13.8 9.3-3.2-0.5-6.1-2.1-8.3-4.4l3.4-5c0.9 0.7 1.6 1.2 2.3 1.7 1.9 1.5 4.4 1.8 6.6 0.8 2.2-1.1 2.8-3.2 2.8-5.6 0-4.9 0-9.7 0-14.6 0-0.7-0.1-1.5-0.3-2.2-3-1.2-6.5 0-10-0.9z"/>
	<path id="Layer" class="s0" d="m68.3 50c-2.3 0-4.2 0-6 0-0.5 0-0.9-0.1-1.4-0.2v-35.4c2.5 3.5 4.7 6.6 6.8 9.8 0.4 0.6 0.6 1.2 0.6 1.9 0 7.8 0 15.7 0 23.9z"/>
	<path id="Layer" class="s0" d="m62.4 10.4l3.2 2.1c1-2.2 1.9-4.3 3-6.3 1.1-2 2.6-3.7 4.4-6.2 0.1 0.7 0.2 1.5 0.2 2.2-0.9 4-1.8 8-2.7 11.9-0.1 0.5-0.3 1.1-0.6 1.6-1 2.2-2.8 2.5-4.3 0.5-1.3-1.7-2.5-3.6-3.7-5.4z"/>
</svg>